<mxfile host="app.diagrams.net" modified="2023-12-15T06:26:52.639Z" agent="Mozilla/5.0 (Windows NT 10.0; Win64; x64) AppleWebKit/537.36 (KHTML, like Gecko) Chrome/119.0.6045.160 Safari/537.36" version="22.1.9" etag="ac-fjPgLcPMkiRuBiELN" type="github">
  <diagram name="第 1 页" id="3hgTw9OVB3sfl_frFI8P">
    <mxGraphModel>
      <root>
        <mxCell id="0" />
        <mxCell id="1" parent="0" />
      </root>
    </mxGraphModel>
  </diagram>
</mxfile>
